Source: /Users/adpena/projects/pact/workspace/upstream/comma_video_compression_challenge/videos/0.mkv
Resolution: 1164x874, FPS: 20.000, Frames: 1200
Corridor vertices (normalised): [(0.1, 0.3), (0.9, 0.3), (1.0, 1.0), (0.0, 1.0)]
Outside blur sigma: 4.0
Feather radius: 32px
Outside blend factor: 0.6
Effective mask coverage (>0.5): 643710/1017336 (63.3%)
  Processed 300 frames ...
  Processed 600 frames ...
  Processed 900 frames ...
  Processed 1200 frames ...
Preprocessed 1200 frames -> /var/folders/xr/cdmnz18s68j8sybt6vcwjs200000gn/T/robust_current_archive.Xz7XWi/0_preprocessed.mkv
Encoding /var/folders/xr/cdmnz18s68j8sybt6vcwjs200000gn/T/robust_current_archive.Xz7XWi/0_preprocessed.mkv -> /var/folders/xr/cdmnz18s68j8sybt6vcwjs200000gn/T/robust_current_archive.Xz7XWi/archive/0.mkv
ffmpeg version 8.1 Copyright (c) 2000-2026 the FFmpeg developers
  built with Apple clang version 17.0.0 (clang-1700.6.4.2)
  configuration: --prefix=/opt/homebrew/Cellar/ffmpeg/8.1 --enable-shared --enable-pthreads --enable-version3 --cc=clang --host-cflags= --host-ldflags= --enable-ffplay --enable-gpl --enable-libsvtav1 --enable-libopus --enable-libx264 --enable-libmp3lame --enable-libdav1d --enable-libvpx --enable-libx265 --enable-openssl --enable-videotoolbox --enable-audiotoolbox --enable-neon
  libavutil      60. 26.100 / 60. 26.100
  libavcodec     62. 28.100 / 62. 28.100
  libavformat    62. 12.100 / 62. 12.100
  libavdevice    62.  3.100 / 62.  3.100
  libavfilter    11. 14.100 / 11. 14.100
  libswscale      9.  5.100 /  9.  5.100
  libswresample   6.  3.100 /  6.  3.100
Input #0, matroska,webm, from '/var/folders/xr/cdmnz18s68j8sybt6vcwjs200000gn/T/robust_current_archive.Xz7XWi/0_preprocessed.mkv':
  Metadata:
    ENCODER         : Lavf62.12.100
  Duration: 00:01:00.00, start: 0.000000, bitrate: 113998 kb/s
  Stream #0:0: Video: ffv1, bgr0(pc, gbr/unknown/unknown, progressive), 1164x874, 20 fps, 20 tbr, 1k tbn
    Metadata:
      ENCODER         : Lavc62.28.100 ffv1
      DURATION        : 00:01:00.000000000
Stream mapping:
  Stream #0:0 -> #0:0 (ffv1 (native) -> av1 (libsvtav1))
Press [q] to stop, [?] for help
Svt[info]: -------------------------------------------
Svt[info]: SVT [version]:	SVT-AV1 Encoder Lib v4.1.0
Svt[info]: SVT [build]  :	Apple LLVM 17.0.0 (clang-1700.6.4.2)	 64 bit
Svt[info]: LIB Build date: Mar 23 2026 06:52:18
Svt[info]: -------------------------------------------
Svt[info]: Level of Parallelism: 5
Svt[info]: Number of PPCS 140
Svt[info]: [asm level on system : up to neon_i8mm]
Svt[info]: [asm level selected : up to neon_i8mm]
Svt[info]: -------------------------------------------
Svt[info]: SVT [config]: main profile	tier (auto)	level (auto)
Svt[info]: SVT [config]: width / height / fps numerator / fps denominator 		: 528 / 400 / 20 / 1
Svt[info]: SVT [config]: bit-depth / color format 					: 8 / YUV420
Svt[info]: SVT [config]: preset / tune / pred struct 					: 0 / PSNR / random access
Svt[info]: SVT [config]: gop size / mini-gop size / key-frame type 			: 180 / 32 / key frame
Svt[info]: SVT [config]: BRC mode / rate factor 					: CRF / 34.00 
Svt[info]: SVT [config]: AQ mode / Variance Boost 					: 2 / 0
Svt[info]: SVT [config]: film grain synth / denoising / level / adaptive blocksize 	: 1 / 0 / 22 / True
Svt[info]: SVT [config]: sharpness / luminance-based QP bias 				: 1 / 0
Svt[info]: SVT [config]: QP scale compress strength 					: 0
Svt[info]: -------------------------------------------
Output #0, matroska, to '/var/folders/xr/cdmnz18s68j8sybt6vcwjs200000gn/T/robust_current_archive.Xz7XWi/archive/0.mkv':
  Metadata:
    encoder         : Lavf62.12.100
  Stream #0:0: Video: av1 (AV01 / 0x31305641), yuv420p(tv, bt709, progressive), 524x394, q=2-31, 20 fps, 1k tbn
    Metadata:
      encoder         : Lavc62.28.100 libsvtav1
      DURATION        : 00:01:00.000000000
frame=    0 fps=0.0 q=0.0 size=       0KiB time=N/A bitrate=N/A speed=N/A elapsed=0:00:00.50    frame=    0 fps=0.0 q=0.0 size=       0KiB time=N/A bitrate=N/A speed=N/A elapsed=0:00:01.01    frame=    0 fps=0.0 q=0.0 size=       0KiB time=N/A bitrate=N/A speed=N/A elapsed=0:00:01.51    frame=    0 fps=0.0 q=0.0 size=       0KiB time=N/A bitrate=N/A speed=N/A elapsed=0:00:02.02    frame=    0 fps=0.0 q=0.0 size=       0KiB time=N/A bitrate=N/A speed=N/A elapsed=0:00:02.52    frame=    0 fps=0.0 q=0.0 size=       0KiB time=N/A bitrate=N/A speed=N/A elapsed=0:00:03.02    frame=    1 fps=0.3 q=14.0 size=       1KiB time=00:00:00.00 bitrate=N/A speed=   0x elapsed=0:00:03.53    frame=    1 fps=0.2 q=14.0 size=       1KiB time=00:00:00.00 bitrate=N/A speed=   0x elapsed=0:00:04.04    frame=    1 fps=0.2 q=14.0 size=       1KiB time=00:00:00.00 bitrate=N/A speed=   0x elapsed=0:00:04.54    frame=    1 fps=0.2 q=14.0 size=       1KiB time=00:00:00.00 bitrate=N/A speed=   0x elapsed=0:00:05.05    frame=    6 fps=1.1 q=34.0 size=       1KiB time=00:00:00.25 bitrate=  18.3kbits/s speed=0.045x elapsed=0:00:05.55    frame=   13 fps=2.1 q=29.0 size=       1KiB time=00:00:00.60 bitrate=   7.6kbits/s speed=0.099x elapsed=0:00:06.05    frame=   16 fps=2.4 q=34.0 size=       1KiB time=00:00:00.75 bitrate=   6.1kbits/s speed=0.114x elapsed=0:00:06.56    frame=   23 fps=3.2 q=31.0 size=       1KiB time=00:00:01.10 bitrate=   4.2kbits/s speed=0.155x elapsed=0:00:07.08    frame=   30 fps=4.0 q=34.0 size=       1KiB time=00:00:01.45 bitrate=   3.2kbits/s speed=0.191x elapsed=0:00:07.58    frame=   36 fps=4.4 q=34.0 size=       1KiB time=00:00:01.75 bitrate=   2.6kbits/s speed=0.216x elapsed=0:00:08.09    frame=   42 fps=4.9 q=34.0 size=       1KiB time=00:00:02.05 bitrate=   2.2kbits/s speed=0.238x elapsed=0:00:08.60    frame=   46 fps=5.0 q=34.0 size=       1KiB time=00:00:02.25 bitrate=   2.0kbits/s speed=0.247x elapsed=0:00:09.10    frame=   54 fps=5.6 q=34.0 size=       1KiB time=00:00:02.65 bitrate=   1.7kbits/s speed=0.276x elapsed=0:00:09.61    frame=   61 fps=6.0 q=32.0 size=       1KiB time=00:00:03.00 bitrate=   1.5kbits/s speed=0.296x elapsed=0:00:10.11    frame=   68 fps=6.4 q=34.0 size=       1KiB time=00:00:03.35 bitrate=   1.4kbits/s speed=0.315x elapsed=0:00:10.63    frame=   74 fps=6.6 q=34.0 size=       1KiB time=00:00:03.65 bitrate=   1.3kbits/s speed=0.328x elapsed=0:00:11.14    frame=   77 fps=6.6 q=31.0 size=       1KiB time=00:00:03.80 bitrate=   1.2kbits/s speed=0.326x elapsed=0:00:11.64    frame=   83 fps=6.8 q=32.0 size=       1KiB time=00:00:04.10 bitrate=   1.1kbits/s speed=0.337x elapsed=0:00:12.15    frame=   90 fps=7.1 q=34.0 size=       1KiB time=00:00:04.45 bitrate=   1.0kbits/s speed=0.351x elapsed=0:00:12.66    frame=   96 fps=7.3 q=34.0 size=       1KiB time=00:00:04.75 bitrate=   1.0kbits/s speed=0.36x elapsed=0:00:13.17    frame=  103 fps=7.5 q=32.0 size=      73KiB time=00:00:05.10 bitrate= 117.9kbits/s speed=0.373x elapsed=0:00:13.68    frame=  108 fps=7.6 q=34.0 size=      73KiB time=00:00:05.35 bitrate= 112.4kbits/s speed=0.377x elapsed=0:00:14.18    frame=  110 fps=7.5 q=34.0 size=      73KiB time=00:00:05.45 bitrate= 110.3kbits/s speed=0.371x elapsed=0:00:14.69    frame=  116 fps=7.6 q=34.0 size=      73KiB time=00:00:05.75 bitrate= 104.5kbits/s speed=0.378x elapsed=0:00:15.19    frame=  120 fps=7.6 q=34.0 size=      73KiB time=00:00:05.95 bitrate= 101.0kbits/s speed=0.379x elapsed=0:00:15.70    frame=  127 fps=7.8 q=32.0 size=      73KiB time=00:00:06.30 bitrate=  95.4kbits/s speed=0.389x elapsed=0:00:16.20    frame=  132 fps=7.9 q=34.0 size=      73KiB time=00:00:06.55 bitrate=  91.8kbits/s speed=0.392x elapsed=0:00:16.71    frame=  138 fps=8.0 q=34.0 size=      73KiB time=00:00:06.85 bitrate=  87.8kbits/s speed=0.398x elapsed=0:00:17.22    frame=  142 fps=8.0 q=34.0 size=      73KiB time=00:00:07.05 bitrate=  85.3kbits/s speed=0.398x elapsed=0:00:17.72    frame=  145 fps=8.0 q=23.0 size=      73KiB time=00:00:07.20 bitrate=  83.5kbits/s speed=0.395x elapsed=0:00:18.23    frame=  149 fps=8.0 q=30.0 size=      73KiB time=00:00:07.40 bitrate=  81.2kbits/s speed=0.395x elapsed=0:00:18.73    frame=  155 fps=8.1 q=32.0 size=      73KiB time=00:00:07.70 bitrate=  78.1kbits/s speed= 0.4x elapsed=0:00:19.24    frame=  160 fps=8.1 q=34.0 size=      73KiB time=00:00:07.95 bitrate=  75.6kbits/s speed=0.402x elapsed=0:00:19.75    frame=  164 fps=8.1 q=34.0 size=      73KiB time=00:00:08.15 bitrate=  73.8kbits/s speed=0.402x elapsed=0:00:20.25    frame=  169 fps=8.1 q=26.0 size=      73KiB time=00:00:08.40 bitrate=  71.6kbits/s speed=0.405x elapsed=0:00:20.76    frame=  169 fps=7.9 q=26.0 size=      73KiB time=00:00:08.40 bitrate=  71.6kbits/s speed=0.395x elapsed=0:00:21.26    frame=  173 fps=7.9 q=31.0 size=      73KiB time=00:00:08.60 bitrate=  69.9kbits/s speed=0.395x elapsed=0:00:21.77    frame=  177 fps=7.9 q=22.0 size=      73KiB time=00:00:08.80 bitrate=  68.3kbits/s speed=0.395x elapsed=0:00:22.27    frame=  181 fps=7.9 q=14.0 size=      73KiB time=00:00:09.00 bitrate=  66.8kbits/s speed=0.395x elapsed=0:00:22.78    frame=  186 fps=8.0 q=34.0 size=     127KiB time=00:00:09.25 bitrate= 112.8kbits/s speed=0.397x elapsed=0:00:23.28    frame=  191 fps=8.0 q=31.0 size=     127KiB time=00:00:09.50 bitrate= 109.8kbits/s speed=0.399x elapsed=0:00:23.79    frame=  197 fps=8.1 q=23.0 size=     127KiB time=00:00:09.80 bitrate= 106.5kbits/s speed=0.403x elapsed=0:00:24.30    frame=  202 fps=8.1 q=34.0 size=     127KiB time=00:00:10.05 bitrate= 103.8kbits/s speed=0.405x elapsed=0:00:24.80    frame=  206 fps=8.1 q=34.0 size=     127KiB time=00:00:10.25 bitrate= 101.8kbits/s speed=0.405x elapsed=0:00:25.30    frame=  208 fps=8.1 q=34.0 size=     127KiB time=00:00:10.35 bitrate= 100.8kbits/s speed=0.401x elapsed=0:00:25.80    frame=  215 fps=8.2 q=32.0 size=     127KiB time=00:00:10.70 bitrate=  97.5kbits/s speed=0.407x elapsed=0:00:26.31    frame=  221 fps=8.2 q=30.0 size=     127KiB time=00:00:11.00 bitrate=  94.8kbits/s speed=0.41x elapsed=0:00:26.82    frame=  226 fps=8.3 q=34.0 size=     127KiB time=00:00:11.25 bitrate=  92.7kbits/s speed=0.412x elapsed=0:00:27.32    frame=  231 fps=8.3 q=32.0 size=     127KiB time=00:00:11.50 bitrate=  90.7kbits/s speed=0.413x elapsed=0:00:27.82    frame=  237 fps=8.4 q=30.0 size=     127KiB time=00:00:11.80 bitrate=  88.4kbits/s speed=0.416x elapsed=0:00:28.33    frame=  239 fps=8.3 q=32.0 size=     127KiB time=00:00:11.90 bitrate=  87.7kbits/s speed=0.413x elapsed=0:00:28.83    frame=  243 fps=8.3 q=32.0 size=     127KiB time=00:00:12.10 bitrate=  86.2kbits/s speed=0.412x elapsed=0:00:29.34    frame=  249 fps=8.3 q=31.0 size=     127KiB time=00:00:12.40 bitrate=  84.1kbits/s speed=0.415x elapsed=0:00:29.85    frame=  256 fps=8.4 q=34.0 size=     127KiB time=00:00:12.75 bitrate=  81.8kbits/s speed=0.42x elapsed=0:00:30.36    frame=  261 fps=8.5 q=23.0 size=     127KiB time=00:00:13.00 bitrate=  80.3kbits/s speed=0.421x elapsed=0:00:30.87    frame=  267 fps=8.5 q=32.0 size=     127KiB time=00:00:13.30 bitrate=  78.4kbits/s speed=0.424x elapsed=0:00:31.37    frame=  270 fps=8.5 q=33.0 size=     127KiB time=00:00:13.50 bitrate=  77.3kbits/s speed=0.423x elapsed=0:00:31.88    frame=  273 fps=8.4 q=31.0 size=     127KiB time=00:00:13.60 bitrate=  76.7kbits/s speed=0.42x elapsed=0:00:32.39    frame=  280 fps=8.5 q=34.0 size=     127KiB time=00:00:13.95 bitrate=  74.8kbits/s speed=0.424x elapsed=0:00:32.90    frame=  285 fps=8.5 q=34.0 size=     221KiB time=00:00:14.25 bitrate= 127.0kbits/s speed=0.427x elapsed=0:00:33.41    frame=  294 fps=8.7 q=34.0 size=     221KiB time=00:00:14.65 bitrate= 123.5kbits/s speed=0.432x elapsed=0:00:33.91    frame=  299 fps=8.7 q=32.0 size=     221KiB time=00:00:14.90 bitrate= 121.4kbits/s speed=0.433x elapsed=0:00:34.42    frame=  304 fps=8.7 q=34.0 size=     221KiB time=00:00:15.15 bitrate= 119.4kbits/s speed=0.434x elapsed=0:00:34.93    frame=  309 fps=8.7 q=14.0 size=     221KiB time=00:00:15.40 bitrate= 117.5kbits/s speed=0.435x elapsed=0:00:35.43    frame=  315 fps=8.8 q=33.0 size=     221KiB time=00:00:15.70 bitrate= 115.2kbits/s speed=0.437x elapsed=0:00:35.94    frame=  324 fps=8.9 q=34.0 size=     221KiB time=00:00:16.15 bitrate= 112.0kbits/s speed=0.443x elapsed=0:00:36.44    frame=  329 fps=8.9 q=31.0 size=     221KiB time=00:00:16.40 bitrate= 110.3kbits/s speed=0.444x elapsed=0:00:36.95    frame=  339 fps=9.0 q=33.0 size=     221KiB time=00:00:16.90 bitrate= 107.1kbits/s speed=0.451x elapsed=0:00:37.46    frame=  345 fps=9.1 q=33.0 size=     221KiB time=00:00:17.20 bitrate= 105.2kbits/s speed=0.453x elapsed=0:00:37.98    frame=  352 fps=9.1 q=34.0 size=     221KiB time=00:00:17.55 bitrate= 103.1kbits/s speed=0.456x elapsed=0:00:38.48    frame=  354 fps=9.1 q=34.0 size=     221KiB time=00:00:17.65 bitrate= 102.5kbits/s speed=0.453x elapsed=0:00:38.99    frame=  361 fps=9.1 q=15.0 size=     221KiB time=00:00:18.00 bitrate= 100.5kbits/s speed=0.456x elapsed=0:00:39.49    frame=  367 fps=9.2 q=32.0 size=     256KiB time=00:00:18.30 bitrate= 114.6kbits/s speed=0.457x elapsed=0:00:40.00    frame=  375 fps=9.3 q=33.0 size=     256KiB time=00:00:18.70 bitrate= 112.1kbits/s speed=0.462x elapsed=0:00:40.50    frame=  380 fps=9.3 q=34.0 size=     256KiB time=00:00:18.95 bitrate= 110.7kbits/s speed=0.462x elapsed=0:00:41.01    frame=  388 fps=9.3 q=34.0 size=     256KiB time=00:00:19.35 bitrate= 108.4kbits/s speed=0.466x elapsed=0:00:41.51    frame=  396 fps=9.4 q=34.0 size=     256KiB time=00:00:19.75 bitrate= 106.2kbits/s speed=0.47x elapsed=0:00:42.02    frame=  405 fps=9.5 q=32.0 size=     256KiB time=00:00:20.20 bitrate= 103.8kbits/s speed=0.475x elapsed=0:00:42.53    frame=  411 fps=9.5 q=33.0 size=     256KiB time=00:00:20.50 bitrate= 102.3kbits/s speed=0.476x elapsed=0:00:43.03    frame=  416 fps=9.6 q=34.0 size=     256KiB time=00:00:20.75 bitrate= 101.1kbits/s speed=0.477x elapsed=0:00:43.54    frame=  421 fps=9.6 q=33.0 size=     256KiB time=00:00:21.00 bitrate=  99.9kbits/s speed=0.477x elapsed=0:00:44.05    frame=  428 fps=9.6 q=32.0 size=     256KiB time=00:00:21.40 bitrate=  98.0kbits/s speed=0.48x elapsed=0:00:44.56    frame=  436 fps=9.7 q=34.0 size=     256KiB time=00:00:21.75 bitrate=  96.4kbits/s speed=0.483x elapsed=0:00:45.06    frame=  442 fps=9.7 q=34.0 size=     256KiB time=00:00:22.05 bitrate=  95.1kbits/s speed=0.484x elapsed=0:00:45.56    frame=  444 fps=9.6 q=34.0 size=     256KiB time=00:00:22.15 bitrate=  94.7kbits/s speed=0.481x elapsed=0:00:46.07    frame=  449 fps=9.6 q=31.0 size=     256KiB time=00:00:22.40 bitrate=  93.6kbits/s speed=0.481x elapsed=0:00:46.57    frame=  454 fps=9.6 q=34.0 size=     256KiB time=00:00:22.65 bitrate=  92.6kbits/s speed=0.481x elapsed=0:00:47.08    frame=  459 fps=9.6 q=33.0 size=     256KiB time=00:00:22.90 bitrate=  91.6kbits/s speed=0.481x elapsed=0:00:47.59    frame=  465 fps=9.7 q=32.0 size=     256KiB time=00:00:23.20 bitrate=  90.4kbits/s speed=0.482x elapsed=0:00:48.09    frame=  471 fps=9.7 q=33.0 size=     256KiB time=00:00:23.50 bitrate=  89.2kbits/s speed=0.484x elapsed=0:00:48.60    frame=  476 fps=9.7 q=34.0 size=     256KiB time=00:00:23.75 bitrate=  88.3kbits/s speed=0.484x elapsed=0:00:49.10    frame=  480 fps=9.7 q=34.0 size=     256KiB time=00:00:23.95 bitrate=  87.6kbits/s speed=0.483x elapsed=0:00:49.61    frame=  487 fps=9.7 q=32.0 size=     256KiB time=00:00:24.30 bitrate=  86.3kbits/s speed=0.485x elapsed=0:00:50.13    frame=  493 fps=9.7 q=32.0 size=     256KiB time=00:00:24.60 bitrate=  85.3kbits/s speed=0.486x elapsed=0:00:50.63    frame=  502 fps=9.8 q=34.0 size=     256KiB time=00:00:25.05 bitrate=  83.7kbits/s speed=0.49x elapsed=0:00:51.14    frame=  509 fps=9.9 q=31.0 size=     256KiB time=00:00:25.40 bitrate=  82.6kbits/s speed=0.492x elapsed=0:00:51.65    frame=  517 fps=9.9 q=32.0 size=     256KiB time=00:00:25.80 bitrate=  81.3kbits/s speed=0.495x elapsed=0:00:52.15    frame=  524 fps=9.9 q=34.0 size=     256KiB time=00:00:26.15 bitrate=  80.2kbits/s speed=0.497x elapsed=0:00:52.66    frame=  532 fps= 10 q=34.0 size=     256KiB time=00:00:26.55 bitrate=  79.0kbits/s speed=0.499x elapsed=0:00:53.17    frame=  537 fps= 10 q=21.0 size=     256KiB time=00:00:26.80 bitrate=  78.3kbits/s speed=0.499x elapsed=0:00:53.67    frame=  544 fps= 10 q=34.0 size=     256KiB time=00:00:27.15 bitrate=  77.2kbits/s speed=0.501x elapsed=0:00:54.18    frame=  549 fps= 10 q=32.0 size=     256KiB time=00:00:27.40 bitrate=  76.5kbits/s speed=0.501x elapsed=0:00:54.69    frame=  556 fps= 10 q=34.0 size=     256KiB time=00:00:27.75 bitrate=  75.6kbits/s speed=0.503x elapsed=0:00:55.20    frame=  560 fps= 10 q=34.0 size=     256KiB time=00:00:27.95 bitrate=  75.0kbits/s speed=0.502x elapsed=0:00:55.71    frame=  565 fps= 10 q=31.0 size=     256KiB time=00:00:28.20 bitrate=  74.4kbits/s speed=0.502x elapsed=0:00:56.22    frame=  573 fps= 10 q=14.0 size=     256KiB time=00:00:28.60 bitrate=  73.3kbits/s speed=0.504x elapsed=0:00:56.72    frame=  578 fps= 10 q=34.0 size=     256KiB time=00:00:28.85 bitrate=  72.7kbits/s speed=0.504x elapsed=0:00:57.23    frame=  585 fps= 10 q=32.0 size=     256KiB time=00:00:29.20 bitrate=  71.8kbits/s speed=0.506x elapsed=0:00:57.74    frame=  589 fps= 10 q=21.0 size=     256KiB time=00:00:29.40 bitrate=  71.3kbits/s speed=0.505x elapsed=0:00:58.24    frame=  591 fps= 10 q=33.0 size=     256KiB time=00:00:29.50 bitrate=  71.1kbits/s speed=0.502x elapsed=0:00:58.75    frame=  592 fps= 10 q=34.0 size=     256KiB time=00:00:29.55 bitrate=  71.0kbits/s speed=0.499x elapsed=0:00:59.25    frame=  597 fps= 10 q=31.0 size=     256KiB time=00:00:29.80 bitrate=  70.4kbits/s speed=0.499x elapsed=0:00:59.76    frame=  601 fps= 10 q=32.0 size=     256KiB time=00:00:30.00 bitrate=  69.9kbits/s speed=0.498x elapsed=0:01:00.27    frame=  608 fps= 10 q=34.0 size=     256KiB time=00:00:30.35 bitrate=  69.1kbits/s speed=0.499x elapsed=0:01:00.78    frame=  614 fps= 10 q=34.0 size=     256KiB time=00:00:30.65 bitrate=  68.4kbits/s speed= 0.5x elapsed=0:01:01.29    frame=  618 fps= 10 q=34.0 size=     256KiB time=00:00:30.85 bitrate=  68.0kbits/s speed=0.499x elapsed=0:01:01.79    frame=  622 fps= 10 q=34.0 size=     256KiB time=00:00:31.05 bitrate=  67.5kbits/s speed=0.498x elapsed=0:01:02.30    frame=  623 fps=9.9 q=32.0 size=     256KiB time=00:00:31.10 bitrate=  67.4kbits/s speed=0.495x elapsed=0:01:02.81    frame=  626 fps=9.9 q=34.0 size=     256KiB time=00:00:31.25 bitrate=  67.1kbits/s speed=0.494x elapsed=0:01:03.32    frame=  630 fps=9.9 q=34.0 size=     256KiB time=00:00:31.45 bitrate=  66.7kbits/s speed=0.493x elapsed=0:01:03.83    frame=  635 fps=9.9 q=32.0 size=     256KiB time=00:00:31.70 bitrate=  66.2kbits/s speed=0.493x elapsed=0:01:04.34    frame=  640 fps=9.9 q=34.0 size=     256KiB time=00:00:31.95 bitrate=  65.6kbits/s speed=0.493x elapsed=0:01:04.84    frame=  647 fps=9.9 q=32.0 size=     256KiB time=00:00:32.30 bitrate=  64.9kbits/s speed=0.494x elapsed=0:01:05.35    frame=  651 fps=9.9 q=33.0 size=     256KiB time=00:00:32.50 bitrate=  64.5kbits/s speed=0.493x elapsed=0:01:05.85    frame=  654 fps=9.9 q=34.0 size=     256KiB time=00:00:32.65 bitrate=  64.2kbits/s speed=0.492x elapsed=0:01:06.35    frame=  658 fps=9.8 q=34.0 size=     256KiB time=00:00:32.85 bitrate=  63.8kbits/s speed=0.491x elapsed=0:01:06.86    frame=  663 fps=9.8 q=32.0 size=     256KiB time=00:00:33.10 bitrate=  63.4kbits/s speed=0.491x elapsed=0:01:07.37    frame=  667 fps=9.8 q=32.0 size=     256KiB time=00:00:33.30 bitrate=  63.0kbits/s speed=0.491x elapsed=0:01:07.87    frame=  672 fps=9.8 q=34.0 size=     256KiB time=00:00:33.55 bitrate=  62.5kbits/s speed=0.491x elapsed=0:01:08.37    frame=  679 fps=9.9 q=32.0 size=     256KiB time=00:00:33.90 bitrate=  61.9kbits/s speed=0.492x elapsed=0:01:08.88    frame=  681 fps=9.8 q=31.0 size=     256KiB time=00:00:34.00 bitrate=  61.7kbits/s speed=0.49x elapsed=0:01:09.38    frame=  684 fps=9.8 q=34.0 size=     256KiB time=00:00:34.15 bitrate=  61.4kbits/s speed=0.489x elapsed=0:01:09.89    frame=  689 fps=9.8 q=31.0 size=     256KiB time=00:00:34.40 bitrate=  61.0kbits/s speed=0.489x elapsed=0:01:10.40    frame=  695 fps=9.8 q=34.0 size=     256KiB time=00:00:34.75 bitrate=  60.3kbits/s speed=0.49x elapsed=0:01:10.90    frame=  701 fps=9.8 q=16.0 size=     256KiB time=00:00:35.00 bitrate=  59.9kbits/s speed=0.49x elapsed=0:01:11.40    frame=  708 fps=9.8 q=34.0 size=     256KiB time=00:00:35.35 bitrate=  59.3kbits/s speed=0.492x elapsed=0:01:11.91    frame=  710 fps=9.8 q=34.0 size=     256KiB time=00:00:35.45 bitrate=  59.2kbits/s speed=0.49x elapsed=0:01:12.41    frame=  713 fps=9.8 q=32.0 size=     256KiB time=00:00:35.60 bitrate=  58.9kbits/s speed=0.488x elapsed=0:01:12.91    frame=  717 fps=9.8 q=23.0 size=     256KiB time=00:00:35.80 bitrate=  58.6kbits/s speed=0.488x elapsed=0:01:13.43    frame=  721 fps=9.8 q=13.0 size=     256KiB time=00:00:36.00 bitrate=  58.3kbits/s speed=0.487x elapsed=0:01:13.93    frame=  726 fps=9.8 q=34.0 size=     256KiB time=00:00:36.25 bitrate=  57.9kbits/s speed=0.487x elapsed=0:01:14.44    frame=  730 fps=9.7 q=34.0 size=     256KiB time=00:00:36.45 bitrate=  57.5kbits/s speed=0.486x elapsed=0:01:14.94    frame=  733 fps=9.7 q=31.0 size=     256KiB time=00:00:36.60 bitrate=  57.3kbits/s speed=0.485x elapsed=0:01:15.45    frame=  736 fps=9.7 q=34.0 size=     256KiB time=00:00:36.75 bitrate=  57.1kbits/s speed=0.484x elapsed=0:01:15.95    frame=  740 fps=9.7 q=34.0 size=     256KiB time=00:00:36.95 bitrate=  56.8kbits/s speed=0.483x elapsed=0:01:16.47    frame=  744 fps=9.7 q=34.0 size=     256KiB time=00:00:37.15 bitrate=  56.5kbits/s speed=0.483x elapsed=0:01:16.97    frame=  746 fps=9.6 q=34.0 size=     256KiB time=00:00:37.25 bitrate=  56.3kbits/s speed=0.481x elapsed=0:01:17.48    frame=  752 fps=9.6 q=34.0 size=     256KiB time=00:00:37.55 bitrate=  55.8kbits/s speed=0.482x elapsed=0:01:17.98    frame=  756 fps=9.6 q=34.0 size=     256KiB time=00:00:37.75 bitrate=  55.6kbits/s speed=0.481x elapsed=0:01:18.49    frame=  759 fps=9.6 q=32.0 size=     256KiB time=00:00:37.90 bitrate=  55.3kbits/s speed=0.48x elapsed=0:01:18.99    frame=  764 fps=9.6 q=34.0 size=     256KiB time=00:00:38.15 bitrate=  55.0kbits/s speed=0.48x elapsed=0:01:19.50    frame=  768 fps=9.6 q=34.0 size=     256KiB time=00:00:38.35 bitrate=  54.7kbits/s speed=0.479x elapsed=0:01:20.01    frame=  770 fps=9.6 q=34.0 size=     256KiB time=00:00:38.45 bitrate=  54.5kbits/s speed=0.478x elapsed=0:01:20.52    frame=  772 fps=9.5 q=34.0 size=     256KiB time=00:00:38.55 bitrate=  54.4kbits/s speed=0.476x elapsed=0:01:21.03    frame=  773 fps=9.5 q=32.0 size=     256KiB time=00:00:38.60 bitrate=  54.3kbits/s speed=0.473x elapsed=0:01:21.54    frame=  777 fps=9.5 q=29.0 size=     256KiB time=00:00:38.80 bitrate=  54.1kbits/s speed=0.473x elapsed=0:01:22.04    frame=  779 fps=9.4 q=34.0 size=     256KiB time=00:00:38.95 bitrate=  53.8kbits/s speed=0.472x elapsed=0:01:22.55    frame=  781 fps=9.4 q=32.0 size=     256KiB time=00:00:39.00 bitrate=  53.8kbits/s speed=0.47x elapsed=0:01:23.05    frame=  787 fps=9.4 q=33.0 size=     256KiB time=00:00:39.30 bitrate=  53.4kbits/s speed=0.47x elapsed=0:01:23.56    frame=  788 fps=9.4 q=34.0 size=     256KiB time=00:00:39.35 bitrate=  53.3kbits/s speed=0.468x elapsed=0:01:24.07    frame=  793 fps=9.4 q=31.0 size=     256KiB time=00:00:39.60 bitrate=  53.0kbits/s speed=0.468x elapsed=0:01:24.57    frame=  796 fps=9.4 q=34.0 size=     256KiB time=00:00:39.75 bitrate=  52.8kbits/s speed=0.467x elapsed=0:01:25.08    frame=  800 fps=9.3 q=34.0 size=     256KiB time=00:00:39.95 bitrate=  52.5kbits/s speed=0.467x elapsed=0:01:25.59    frame=  801 fps=9.3 q=20.0 size=     256KiB time=00:00:40.00 bitrate=  52.4kbits/s speed=0.465x elapsed=0:01:26.09    frame=  803 fps=9.3 q=32.0 size=     256KiB time=00:00:40.10 bitrate=  52.3kbits/s speed=0.463x elapsed=0:01:26.59    frame=  804 fps=9.2 q=34.0 size=     256KiB time=00:00:40.15 bitrate=  52.2kbits/s speed=0.461x elapsed=0:01:27.09    frame=  805 fps=9.2 q=31.0 size=     256KiB time=00:00:40.20 bitrate=  52.2kbits/s speed=0.459x elapsed=0:01:27.60    frame=  809 fps=9.2 q=30.0 size=     256KiB time=00:00:40.40 bitrate=  51.9kbits/s speed=0.459x elapsed=0:01:28.11    frame=  812 fps=9.2 q=34.0 size=     256KiB time=00:00:40.55 bitrate=  51.7kbits/s speed=0.458x elapsed=0:01:28.62    frame=  816 fps=9.2 q=34.0 size=     256KiB time=00:00:40.75 bitrate=  51.5kbits/s speed=0.457x elapsed=0:01:29.12    frame=  821 fps=9.2 q=31.0 size=     256KiB time=00:00:41.00 bitrate=  51.2kbits/s speed=0.457x elapsed=0:01:29.62    frame=  827 fps=9.2 q=31.0 size=     512KiB time=00:00:41.30 bitrate= 101.6kbits/s speed=0.458x elapsed=0:01:30.13    frame=  833 fps=9.2 q=22.0 size=     512KiB time=00:00:41.60 bitrate= 100.8kbits/s speed=0.459x elapsed=0:01:30.65    frame=  837 fps=9.2 q=30.0 size=     512KiB time=00:00:41.80 bitrate= 100.3kbits/s speed=0.459x elapsed=0:01:31.16    frame=  839 fps=9.2 q=31.0 size=     512KiB time=00:00:41.90 bitrate= 100.1kbits/s speed=0.457x elapsed=0:01:31.67    frame=  844 fps=9.2 q=34.0 size=     512KiB time=00:00:42.15 bitrate=  99.5kbits/s speed=0.457x elapsed=0:01:32.17    frame=  851 fps=9.2 q=33.0 size=     512KiB time=00:00:42.50 bitrate=  98.7kbits/s speed=0.459x elapsed=0:01:32.68    frame=  857 fps=9.2 q=30.0 size=     512KiB time=00:00:42.80 bitrate=  98.0kbits/s speed=0.459x elapsed=0:01:33.18    frame=  864 fps=9.2 q=34.0 size=     512KiB time=00:00:43.15 bitrate=  97.2kbits/s speed=0.461x elapsed=0:01:33.69    frame=  871 fps=9.2 q=33.0 size=     512KiB time=00:00:43.50 bitrate=  96.4kbits/s speed=0.462x elapsed=0:01:34.19    frame=  876 fps=9.2 q=34.0 size=     512KiB time=00:00:43.75 bitrate=  95.9kbits/s speed=0.462x elapsed=0:01:34.71    frame=  881 fps=9.3 q=18.0 size=     512KiB time=00:00:44.00 bitrate=  95.3kbits/s speed=0.462x elapsed=0:01:35.22    frame=  885 fps=9.2 q=32.0 size=     512KiB time=00:00:44.20 bitrate=  94.9kbits/s speed=0.462x elapsed=0:01:35.72    frame=  891 fps=9.3 q=32.0 size=     512KiB time=00:00:44.50 bitrate=  94.3kbits/s speed=0.462x elapsed=0:01:36.24    frame=  897 fps=9.3 q=24.0 size=     512KiB time=00:00:44.80 bitrate=  93.6kbits/s speed=0.463x elapsed=0:01:36.76    frame=  900 fps=9.3 q=34.0 size=     512KiB time=00:00:44.95 bitrate=  93.3kbits/s speed=0.462x elapsed=0:01:37.27    frame=  904 fps=9.2 q=34.0 size=     512KiB time=00:00:45.15 bitrate=  92.9kbits/s speed=0.462x elapsed=0:01:37.78    frame=  912 fps=9.3 q=34.0 size=     512KiB time=00:00:45.55 bitrate=  92.1kbits/s speed=0.463x elapsed=0:01:38.29    frame=  916 fps=9.3 q=34.0 size=     512KiB time=00:00:45.75 bitrate=  91.7kbits/s speed=0.463x elapsed=0:01:38.80    frame=  920 fps=9.3 q=34.0 size=     512KiB time=00:00:45.95 bitrate=  91.3kbits/s speed=0.463x elapsed=0:01:39.31    frame=  925 fps=9.3 q=30.0 size=     512KiB time=00:00:46.20 bitrate=  90.8kbits/s speed=0.463x elapsed=0:01:39.83    frame=  933 fps=9.3 q=14.0 size=     512KiB time=00:00:46.60 bitrate=  90.0kbits/s speed=0.464x elapsed=0:01:40.33    frame=  937 fps=9.3 q=31.0 size=     512KiB time=00:00:46.80 bitrate=  89.6kbits/s speed=0.464x elapsed=0:01:40.84    frame=  943 fps=9.3 q=32.0 size=     512KiB time=00:00:47.10 bitrate=  89.1kbits/s speed=0.465x elapsed=0:01:41.35    frame=  948 fps=9.3 q=34.0 size=     512KiB time=00:00:47.35 bitrate=  88.6kbits/s speed=0.465x elapsed=0:01:41.87    frame=  951 fps=9.3 q=33.0 size=     512KiB time=00:00:47.50 bitrate=  88.3kbits/s speed=0.464x elapsed=0:01:42.38    frame=  954 fps=9.3 q=34.0 size=     512KiB time=00:00:47.65 bitrate=  88.0kbits/s speed=0.463x elapsed=0:01:42.88    frame=  960 fps=9.3 q=34.0 size=     512KiB time=00:00:47.95 bitrate=  87.5kbits/s speed=0.464x elapsed=0:01:43.39    frame=  967 fps=9.3 q=33.0 size=     512KiB time=00:00:48.30 bitrate=  86.8kbits/s speed=0.465x elapsed=0:01:43.90    frame=  972 fps=9.3 q=34.0 size=     512KiB time=00:00:48.55 bitrate=  86.4kbits/s speed=0.465x elapsed=0:01:44.41    frame=  977 fps=9.3 q=31.0 size=     512KiB time=00:00:48.80 bitrate=  85.9kbits/s speed=0.465x elapsed=0:01:44.92    frame=  982 fps=9.3 q=34.0 size=     512KiB time=00:00:49.05 bitrate=  85.5kbits/s speed=0.465x elapsed=0:01:45.42    frame=  984 fps=9.3 q=34.0 size=     512KiB time=00:00:49.15 bitrate=  85.3kbits/s speed=0.464x elapsed=0:01:45.94    frame=  988 fps=9.3 q=34.0 size=     512KiB time=00:00:49.35 bitrate=  85.0kbits/s speed=0.464x elapsed=0:01:46.45    frame=  994 fps=9.3 q=34.0 size=     512KiB time=00:00:49.65 bitrate=  84.5kbits/s speed=0.464x elapsed=0:01:46.96    frame= 1001 fps=9.3 q=31.0 size=     512KiB time=00:00:50.00 bitrate=  83.9kbits/s speed=0.465x elapsed=0:01:47.47    frame= 1003 fps=9.3 q=32.0 size=     512KiB time=00:00:50.10 bitrate=  83.7kbits/s speed=0.464x elapsed=0:01:47.98    frame= 1010 fps=9.3 q=34.0 size=     512KiB time=00:00:50.45 bitrate=  83.1kbits/s speed=0.465x elapsed=0:01:48.49    frame= 1014 fps=9.3 q=34.0 size=     512KiB time=00:00:50.65 bitrate=  82.8kbits/s speed=0.465x elapsed=0:01:49.00    frame= 1018 fps=9.3 q=34.0 size=     512KiB time=00:00:50.85 bitrate=  82.5kbits/s speed=0.464x elapsed=0:01:49.51    frame= 1024 fps=9.3 q=34.0 size=     512KiB time=00:00:51.15 bitrate=  82.0kbits/s speed=0.465x elapsed=0:01:50.02    frame= 1053 fps=9.5 q=29.0 size=     512KiB time=00:00:52.60 bitrate=  79.7kbits/s speed=0.476x elapsed=0:01:50.52    frame= 1057 fps=9.5 q=31.0 size=     512KiB time=00:00:52.80 bitrate=  79.4kbits/s speed=0.476x elapsed=0:01:51.03    frame= 1065 fps=9.5 q=32.0 size=     512KiB time=00:00:53.20 bitrate=  78.8kbits/s speed=0.477x elapsed=0:01:51.54    frame= 1069 fps=9.5 q=26.0 size=     512KiB time=00:00:53.40 bitrate=  78.5kbits/s speed=0.477x elapsed=0:01:52.05    frame= 1069 fps=9.5 q=26.0 size=     512KiB time=00:00:53.40 bitrate=  78.5kbits/s speed=0.474x elapsed=0:01:52.57    frame= 1073 fps=9.5 q=32.0 size=     512KiB time=00:00:53.60 bitrate=  78.3kbits/s speed=0.474x elapsed=0:01:53.08    frame= 1101 fps=9.7 q=31.0 size=     512KiB time=00:00:55.00 bitrate=  76.3kbits/s speed=0.484x elapsed=0:01:53.59    frame= 1105 fps=9.7 q=29.0 size=     512KiB time=00:00:55.20 bitrate=  76.0kbits/s speed=0.484x elapsed=0:01:54.10    frame= 1113 fps=9.7 q=19.0 size=     512KiB time=00:00:55.60 bitrate=  75.4kbits/s speed=0.485x elapsed=0:01:54.61    frame= 1117 fps=9.7 q=31.0 size=     512KiB time=00:00:55.80 bitrate=  75.2kbits/s speed=0.485x elapsed=0:01:55.12    frame= 1125 fps=9.7 q=31.0 size=     512KiB time=00:00:56.20 bitrate=  74.6kbits/s speed=0.486x elapsed=0:01:55.64    frame= 1129 fps=9.7 q=24.0 size=     512KiB time=00:00:56.40 bitrate=  74.4kbits/s speed=0.486x elapsed=0:01:56.15    frame= 1129 fps=9.7 q=24.0 size=     512KiB time=00:00:56.40 bitrate=  74.4kbits/s speed=0.483x elapsed=0:01:56.66    frame= 1133 fps=9.7 q=30.0 size=     512KiB time=00:00:56.60 bitrate=  74.1kbits/s speed=0.483x elapsed=0:01:57.17    frame= 1141 fps=9.7 q=32.0 size=     512KiB time=00:00:57.00 bitrate=  73.6kbits/s speed=0.484x elapsed=0:01:57.67    frame= 1145 fps=9.7 q=15.0 size=     512KiB time=00:00:57.20 bitrate=  73.3kbits/s speed=0.484x elapsed=0:01:58.19    frame= 1149 fps=9.7 q=31.0 size=     512KiB time=00:00:57.40 bitrate=  73.1kbits/s speed=0.484x elapsed=0:01:58.70    frame= 1157 fps=9.7 q=31.0 size=     512KiB time=00:00:57.80 bitrate=  72.6kbits/s speed=0.485x elapsed=0:01:59.21    frame= 1161 fps=9.7 q=21.0 size=     512KiB time=00:00:58.00 bitrate=  72.3kbits/s speed=0.484x elapsed=0:01:59.72    frame= 1161 fps=9.7 q=21.0 size=     512KiB time=00:00:58.00 bitrate=  72.3kbits/s speed=0.482x elapsed=0:02:00.23    frame= 1165 fps=9.6 q=31.0 size=     512KiB time=00:00:58.20 bitrate=  72.1kbits/s speed=0.482x elapsed=0:02:00.73    frame= 1179 fps=9.7 q=33.0 size=     512KiB time=00:00:58.90 bitrate=  71.2kbits/s speed=0.486x elapsed=0:02:01.25    frame= 1181 fps=9.7 q=32.0 size=     512KiB time=00:00:59.00 bitrate=  71.1kbits/s speed=0.485x elapsed=0:02:01.76    frame= 1185 fps=9.7 q=27.0 size=     768KiB time=00:00:59.20 bitrate= 106.3kbits/s speed=0.484x elapsed=0:02:02.27    frame= 1187 fps=9.7 q=32.0 size=     768KiB time=00:00:59.30 bitrate= 106.1kbits/s speed=0.483x elapsed=0:02:02.78    frame= 1191 fps=9.7 q=32.0 size=     768KiB time=00:00:59.50 bitrate= 105.7kbits/s speed=0.483x elapsed=0:02:03.28    [out#0/matroska @ 0xc1cc10780] video:825KiB audio:0KiB subtitle:0KiB other streams:0KiB global headers:0KiB muxing overhead: 0.752365%
frame= 1200 fps=9.7 q=34.0 Lsize=     831KiB time=00:00:59.95 bitrate= 113.6kbits/s speed=0.486x elapsed=0:02:03.31    
  adding: 0.mkv (deflated 2%)

Wrote /Users/adpena/projects/pact/submissions/robust_current/archive.zip
